# xmcd
#
# Track frame offsets: 
#        150
#        12144
#        23513
#        34939
#        46514
#        58140
#        68386
#        79761
#        92349
#        101403
#        112964
#        126654
#        138292
#        155515
#        168250
#        179119
#        190139
#        201650
#        211598
#        222848
#        233976
#        245892
#        257961
#        270469
#
# Disc length: 3742 seconds
#
# Revision: 1
# Processed by: cddbd v1.5.2PL0 Copyright (c) Steve Scherf et al.
# Submitted via: ExactAudioCopy v1.3
#
DISCID=4d0e9c18
DTITLE=Various Artist - 1966: The Year The Decade Exploded
DYEAR=1966
DGENRE=Rock
TTITLE0=THE UGLYS The Quiet Explosion MONO
TTITLE1=THE STRANGELOVES Night Time MONO
TTITLE2=THE GUYS FROM U.N.C.L.E. The Spy MONO
TTITLE3=DUSTY SPRINGFIELD Little By Little MONO
TTITLE4=THE WHEEL-A-WAYS Bad Little Woman MONO
TTITLE5=NORMA TANEGA Walkin' My Cat Named Dog MONO
TTITLE6=THE SAN REMO GOLDEN STRINGS Festival Time MONO
TTITLE7=JAMES BROWN and THE FAMOUS FLAMES I Got You (I Feel Good) MONO
TTITLE8=LINK WRAY and THE RAYMEN Batman Theme MONO
TTITLE9=RAY SHARPE WITH THE CURTIS KING ORCHESTRA Help Me (Get The Fee
TTITLE9=ling) (Part 1) MONO
TTITLE10=THE MONITORS Greetings (This Is Uncle Sam) MONO
TTITLE11=ROBERT PARKER Barefootin' MONO
TTITLE12=THE WHO Substitute MONO
TTITLE13=THE ASSOCIATION Along Comes Mary MONO
TTITLE14=THE SEEDS The Other Place MONO
TTITLE15=THE OLYMPICS Secret Agents MONO
TTITLE16=THE CAPITOLS Cool Jerk MONO
TTITLE17=THE ELECTRIC PRUNES Ain't It Hard MONO
TTITLE18=SANDIE SHAW Nothing Comes Easy MONO
TTITLE19=THE THIRTEENTH FLOOR ELEVATORS You're Gonna Miss Me MONO
TTITLE20=REX GARVIN and THE MIGHTY CRAVERS Sock It To 'Em J.B. (Part 1) 
TTITLE20=MONO
TTITLE21=REX GARVIN and THE MIGHTY CRAVERS Sock It To 'Em J.B. (Part 2) 
TTITLE21=MONO
TTITLE22=THE ROOSTERS One Of These Days MONO
TTITLE23=THE VELVET UNDERGROUND I'll Be Your Mirror MONO
EXTD=
EXTT0=
EXTT1=
EXTT2=
EXTT3=
EXTT4=
EXTT5=
EXTT6=
EXTT7=
EXTT8=
EXTT9=
EXTT10=
EXTT11=
EXTT12=
EXTT13=
EXTT14=
EXTT15=
EXTT16=
EXTT17=
EXTT18=
EXTT19=
EXTT20=
EXTT21=
EXTT22=
EXTT23=
PLAYORDER=
